<svg viewBox="0 0 20 20" xmlns="http://www.w3.org/2000/svg">
  <path fill-rule="evenodd" clip-rule="evenodd" d="M18.0913 4.91376C18.3842 5.20665 18.3842 5.68153 18.0913 5.97442L10.5353 13.5304C10.3947 13.6711 10.2039 13.7501 10.0049 13.7501C9.80602 13.7501 9.61524 13.671 9.4746 13.5304L5.6976 9.75235C5.40474 9.45942 5.4048 8.98455 5.69774 8.69169C5.99067 8.39884 6.46554 8.3989 6.7584 8.69183L10.0051 11.9394L17.0307 4.91376C17.3236 4.62087 17.7984 4.62087 18.0913 4.91376Z"/>
  <path fill-rule="evenodd" clip-rule="evenodd" d="M10 1.75C5.44321 1.75 1.75 5.44321 1.75 10C1.75 14.5568 5.44321 18.25 10 18.25C14.5568 18.25 18.25 14.5568 18.25 10C18.25 9.58579 18.5858 9.25 19 9.25C19.4142 9.25 19.75 9.58579 19.75 10C19.75 15.3852 15.3852 19.75 10 19.75C4.61479 19.75 0.25 15.3852 0.25 10C0.25 4.61479 4.61479 0.25 10 0.25C11.5762 0.25 13.0591 0.633221 14.373 1.29395C14.743 1.48005 14.8921 1.9309 14.706 2.30095C14.52 2.67101 14.0691 2.82014 13.699 2.63405C12.5829 2.07278 11.3298 1.75 10 1.75Z"/>
</svg>
