<svg viewBox="0 0 16 16" xmlns="http://www.w3.org/2000/svg">
  <path
    d="M6 3.5C6 4.32843 5.32843 5 4.5 5C3.67157 5 3 4.32843 3 3.5C3 2.67157 3.67157 2 4.5 2C5.32843 2 6 2.67157 6 3.5Z"
    />
  <path
    d="M13 13.5C13 14.3284 12.3284 15 11.5 15C10.6716 15 10 14.3284 10 13.5C10 12.6716 10.6716 12 11.5 12C12.3284 12 13 12.6716 13 13.5Z"
    />
  <path
    d="M6 13.5C6 14.3284 5.32843 15 4.5 15C3.67157 15 3 14.3284 3 13.5C3 12.6716 3.67157 12 4.5 12C5.32843 12 6 12.6716 6 13.5Z"
    />
  <path
    d="M13 3.5C13 4.32843 12.3284 5 11.5 5C10.6716 5 10 4.32843 10 3.5C10 2.67157 10.6716 2 11.5 2C12.3284 2 13 2.67157 13 3.5Z"
    />
  <path
    d="M6 8.5C6 9.32843 5.32843 10 4.5 10C3.67157 10 3 9.32843 3 8.5C3 7.67157 3.67157 7 4.5 7C5.32843 7 6 7.67157 6 8.5Z"
    />
  <path
    d="M13 8.5C13 9.32843 12.3284 10 11.5 10C10.6716 10 10 9.32843 10 8.5C10 7.67157 10.6716 7 11.5 7C12.3284 7 13 7.67157 13 8.5Z"
    />
</svg>
